<?xml version="1.0" encoding="UTF-8"?>
<svg width="50px" height="50px" viewBox="0 0 50 50" version="1.1" xmlns="http://www.w3.org/2000/svg" xmlns:xlink="http://www.w3.org/1999/xlink">
    <title>eye</title>
    <g id="Page-2" stroke="none" stroke-width="1" fill="none" fill-rule="evenodd">
        <g id="eye" fill="#000000" fill-rule="nonzero">
            <path d="M49.611218,24.0685394 C45.0768254,18.5440795 35.4767632,12.0970504 24.999228,12.0970504 C14.4841288,12.0970504 4.88367528,18.5879043 0.387238042,24.0685394 C-0.0566830323,24.6095988 -0.0566830323,25.3888573 0.387238042,25.9299167 C5.02913818,31.5880028 14.6516997,37.9015035 24.999228,37.9015035 C35.7144732,37.9015035 45.2736455,31.2146122 49.611218,25.9300145 C50.0551391,25.3888573 50.0551391,24.6095988 49.611218,24.0685394 Z M34.9667137,24.999228 C34.9667137,30.4953192 30.4953192,34.9668115 24.9991302,34.9668115 C19.5028434,34.9668115 15.0315467,30.4950257 15.0315467,24.999228 C15.0315467,19.5031369 19.5029412,15.0316445 24.9991302,15.0316445 C30.4958083,15.0316445 34.9667137,19.5037238 34.9667137,24.999228 Z M3.50378311,24.9996193 C5.15532994,23.283118 9.13751132,19.5786563 14.7276104,17.2010667 C11.2194796,21.8106852 11.2181101,28.1839558 14.7259474,32.7952373 C10.475633,30.9938255 6.52729844,28.1477612 3.50378311,24.9996193 Z M35.2708456,32.7973894 C38.7789764,28.1876731 38.7802481,21.8145003 35.2725086,17.2032188 C39.5226274,19.0046305 43.4710598,21.8507927 46.494673,24.9987389 C44.8431261,26.7154359 40.8609448,30.419702 35.2708456,32.7973894 Z" id="Shape"></path>
            <path d="M20.0102517,24.999228 C20.0102517,27.7502083 22.2482478,29.9882044 24.999228,29.9882044 C27.7501105,29.9882044 29.9882044,27.7502083 29.9882044,24.999228 C29.9882044,22.2482478 27.7501105,20.0102517 24.999228,20.0102517 C22.2482478,20.0102517 20.0102517,22.2482478 20.0102517,24.999228 Z M27.0535124,24.999228 C27.0535124,26.1320191 26.1319213,27.0535124 24.999228,27.0535124 C23.8664369,27.0535124 22.9449436,26.1320191 22.9449436,24.999228 C22.9449436,23.8664369 23.8664369,22.9449436 24.999228,22.9449436 C26.1319213,22.9449436 27.0535124,23.8664369 27.0535124,24.999228 Z" id="Shape"></path>
            <path d="M24.999228,6.41284545 C25.8095943,6.41284545 26.466574,5.75586574 26.466574,4.94549946 L26.466574,1.52169214 C26.466574,0.711325861 25.8095943,0.0543461479 24.999228,0.0543461479 C24.1888618,0.0543461479 23.531882,0.711325861 23.531882,1.52169214 L23.531882,4.94549946 C23.531882,5.75586574 24.1888618,6.41284545 24.999228,6.41284545 Z" id="Path"></path>
            <path d="M33.7543925,8.37537181 C34.457936,8.77664203 35.3542887,8.53198654 35.7559502,7.82766046 L37.7086943,4.40385314 C38.1101601,3.69991836 37.8651134,2.80385907 37.1610807,2.40229538 C36.4569503,2.00082952 35.5610867,2.2458763 35.159523,2.95000673 L33.2067789,6.37381405 C32.8053131,7.07765101 33.0504577,7.97380812 33.7543925,8.37537181 Z" id="Path"></path>
            <path d="M14.2425059,7.82766046 C14.6439717,8.53159524 15.540031,8.77673985 16.2440636,8.37527398 C16.9479984,7.97380812 17.193143,7.07765101 16.7916771,6.37371623 L14.8389331,2.94990891 C14.4374672,2.24597412 13.5412123,2.00082952 12.8373753,2.40229538 C12.1334405,2.80376125 11.8882959,3.69991836 12.2897618,4.40385314 L14.2425059,7.82766046 Z" id="Path"></path>
            <path d="M24.999228,43.5856106 C24.1888618,43.5856106 23.531882,44.2425903 23.531882,45.0529566 L23.531882,48.4767639 C23.531882,49.2871302 24.1888618,49.9441099 24.999228,49.9441099 C25.8095943,49.9441099 26.466574,49.2871302 26.466574,48.4767639 L26.466574,45.0529566 C26.466574,44.2425903 25.8095943,43.5856106 24.999228,43.5856106 Z" id="Path"></path>
            <path d="M16.2440636,41.6231821 C15.5401288,41.221814 14.6440695,41.4668608 14.2425059,42.1707956 L12.2897618,45.5946029 C11.8882959,46.2985377 12.1334405,47.1946948 12.8373753,47.5961607 C13.5414079,47.9976266 14.4374672,47.7523841 14.8389331,47.0485472 L16.7916771,43.6247398 C17.1932408,42.9208051 16.9479984,42.024648 16.2440636,41.6231821 L16.2440636,41.6231821 Z" id="Path"></path>
            <path d="M35.7559502,42.1707956 C35.3544844,41.466763 34.4581316,41.221814 33.7543925,41.6230843 C33.0504577,42.0245501 32.8053131,42.9207072 33.2067789,43.624642 L35.159523,47.0484493 C35.560891,47.7523841 36.4569503,47.9976266 37.1610807,47.5961607 C37.8650155,47.1946948 38.1101601,46.2985377 37.7086943,45.5946029 L35.7559502,42.1707956 Z" id="Path"></path>
        </g>
    </g>
</svg>